#!OML:ASF H:\Punching\Project 1\Capture day 1\Session 1\female.ASF
:FULLY-SPECIFIED
:DEGREES
2638
root -1.01686 15.6936 -4.38011 -348.114 30.3916 -361.294
lowerback -5.79699 1.08823 0.979785
upperback -5.69626 1.46989 -0.191029
thorax -2.5938 0.724157 -0.695963
lowerneck -13.909 0.156001 5.88444
upperneck 35.4249 -1.09589 -0.111248
head 14.5099 0.466503 -1.21911
rclavicle -7.77807e-014 8.54774e-015
rhumerus -36.8834 -21.6561 -59.7124
rradius 25.2126
rwrist 4.56613
rhand -16.9544 -12.8992
rfingers 7.12502
rthumb 9.27931 -42.675
lclavicle -7.77807e-014 8.54774e-015
lhumerus -36.0931 5.31355 58.7198
lradius 37.6773
lwrist -12.0324
lhand -11.2821 13.7161
lfingers 7.12502
lthumb 14.7487 43.1714
rfemur -26.6665 -0.742865 22.0142
rtibia 44.0307
rfoot -25.1379 -17.982
rtoes -5.36432
lfemur -17.8499 -3.53289 -26.6057
ltibia 24.2304
lfoot -20.5003 21.4617
ltoes 14.933
2639
root -1.02507 15.6922 -4.41762 -348.109 29.152 -361.286
lowerback -5.87028 1.13038 1.04409
upperback -5.72455 1.52047 -0.258894
thorax -2.57826 0.745336 -0.798727
lowerneck -13.889 0.217251 5.96017
upperneck 35.482 -1.00904 -0.194614
head 14.5344 0.499236 -1.25432
rclavicle -7.91101e-015 -9.34288e-015
rhumerus -37.2295 -21.8937 -59.7297
rradius 25.0274
rwrist 4.91844
rhand -16.986 -12.7057
rfingers 7.12502
rthumb 9.24888 -42.4828
lclavicle -7.91101e-015 -9.34288e-015
lhumerus -36.2921 5.49553 58.7532
lradius 37.6555
lwrist -12.0116
lhand -11.266 13.7875
lfingers 7.12502
lthumb 14.7642 43.2416
rfemur -26.204 -1.21587 22.238
rtibia 44.317
rfoot -25.2093 -18.0812
rtoes -5.10276
lfemur -17.9654 -3.11204 -26.7627
ltibia 24.2834
lfoot -20.7183 22.0029
ltoes 15.3335
2640
root -1.03381 15.6919 -4.45418 -348.099 27.9286 -361.281
lowerback -5.9408 1.17877 1.12281
upperback -5.75921 1.57877 -0.337256
thorax -2.5699 0.769644 -0.920157
lowerneck -13.8742 0.285855 6.05862
upperneck 35.5496 -0.919339 -0.274175
head 14.5655 0.537337 -1.29157
rclavicle -3.30448e-014 -4.96962e-016
rhumerus -37.5965 -22.1302 -59.7623
rradius 24.8421
rwrist 5.28109
rhand -17.0428 -12.5094
rfingers 7.12502
rthumb 9.19407 -42.289
lclavicle -3.30448e-014 -4.96962e-016
lhumerus -36.4793 5.64197 58.8243
lradius 37.6101
lwrist -11.9819
lhand -11.2461 13.8715
lfingers 7.12502
lthumb 14.7834 43.3243
rfemur -25.733 -1.65288 22.4416
rtibia 44.5242
rfoot -25.2546 -18.2179
rtoes -4.90095
lfemur -18.0844 -2.70465 -26.9057
ltibia 24.3246
lfoot -20.9415 22.5311
ltoes 15.7595
2641
root -1.04327 15.6923 -4.48965 -348.084 26.7216 -361.285
lowerback -6.01018 1.20713 1.196
upperback -5.79415 1.61086 -0.390314
thorax -2.56373 0.78144 -1.0134
lowerneck -13.8601 0.378348 6.16102
upperneck 35.6098 -0.785397 -0.380907
head 14.5951 0.590758 -1.33367
rclavicle -3.01159e-014 6.16232e-015
rhumerus -37.9185 -22.3232 -59.8145
rradius 24.6621
rwrist 5.62351
rhand -17.0794 -12.3625
rfingers 7.12502
rthumb 9.15868 -42.1436
lclavicle -3.01159e-014 6.16232e-015
lhumerus -36.6949 5.84858 58.9253
lradius 37.5409
lwrist -11.981
lhand -11.199 13.9311
lfingers 7.12502
lthumb 14.8288 43.3805
rfemur -25.2547 -2.05095 22.6337
rtibia 44.6475
rfoot -25.2847 -18.3793
rtoes -4.73091
lfemur -18.2053 -2.30936 -27.0276
ltibia 24.3496
lfoot -21.1611 23.0462
ltoes 16.1943
2642
root -1.05365 15.6937 -4.52401 -348.063 25.5298 -361.298
lowerback -6.07643 1.22085 1.26659
upperback -5.83567 1.6238 -0.425892
thorax -2.56714 0.783959 -1.08808
lowerneck -13.84 0.491462 6.26525
upperneck 35.6684 -0.616122 -0.499364
head 14.6245 0.657827 -1.37528
rclavicle -4.43166e-014 -7.55382e-015
rhumerus -38.2174 -22.512 -59.8656
rradius 24.4867
rwrist 5.97587
rhand -17.0369 -12.3043
rfingers 7.12502
rthumb 9.19973 -42.0836
lclavicle -4.43166e-014 -7.55382e-015
lhumerus -36.9355 6.10086 59.0484
lradius 37.4441
lwrist -12.029
lhand -11.134 13.9586
lfingers 7.12502
lthumb 14.8914 43.4034
rfemur -24.7776 -2.39949 22.8157
rtibia 44.6856
rfoot -25.3072 -18.5669
rtoes -4.57537
lfemur -18.3324 -1.92781 -27.128
ltibia 24.3608
lfoot -21.3784 23.5555
ltoes 16.636
2643
root -1.06484 15.6957 -4.55714 -348.03 24.3535 -361.308
lowerback -6.14137 1.21122 1.31359
upperback -5.883 1.60689 -0.435845
thorax -2.57947 0.772706 -1.12447
lowerneck -13.8061 0.627199 6.36911
upperneck 35.7178 -0.402607 -0.642243
head 14.6486 0.739974 -1.41976
rclavicle 4.17696e-014 1.76918e-014
rhumerus -38.4794 -22.6931 -59.9084
rradius 24.3057
rwrist 6.36277
rhand -16.9008 -12.335
rfingers 7.12502
rthumb 9.33105 -42.1085
lclavicle 4.17696e-014 1.76918e-014
lhumerus -37.2223 6.426 59.1841
lradius 37.3218
lwrist -12.1484
lhand -11.0407 13.8837
lfingers 7.12502
lthumb 14.9813 43.3218
rfemur -24.3002 -2.70394 22.9775
rtibia 44.6374
rfoot -25.3309 -18.7687
rtoes -4.45154
lfemur -18.4653 -1.55917 -27.2199
ltibia 24.3637
lfoot -21.5984 24.0581
ltoes 17.0768
2644
root -1.07677 15.6983 -4.58933 -347.982 23.1959 -361.317
lowerback -6.2079 1.19411 1.35407
upperback -5.94347 1.58048 -0.440946
thorax -2.60525 0.756858 -1.15279
lowerneck -13.7464 0.773877 6.48599
upperneck 35.7634 -0.171851 -0.790074
head 14.6667 0.830582 -1.46574
rclavicle 3.63279e-014 4.57205e-015
rhumerus -38.7574 -22.8888 -59.9381
rradius 24.1149
rwrist 6.76772
rhand -16.7922 -12.3288
rfingers 7.12502
rthumb 9.43589 -42.0975
lclavicle 3.63279e-014 4.57205e-015
lhumerus -37.5258 6.76505 59.3369
lradius 37.1687
lwrist -12.3283
lhand -10.9442 13.7541
lfingers 7.12502
lthumb 15.0742 43.1852
rfemur -23.8309 -2.96949 23.1208
rtibia 44.5071
rfoot -25.3698 -18.9637
rtoes -4.29542
lfemur -18.6083 -1.20242 -27.3029
ltibia 24.3566
lfoot -21.8171 24.5592
ltoes 17.5125
2645
root -1.08959 15.7012 -4.62061 -347.923 22.0516 -361.321
lowerback -6.28108 1.16701 1.37707
upperback -5.99935 1.54138 -0.431511
thorax -2.6238 0.735567 -1.15667
lowerneck -13.6938 0.933376 6.60789
upperneck 35.7985 0.0827734 -0.956017
head 14.6835 0.929225 -1.51628
rclavicle -2.23012e-015 9.74045e-015
rhumerus -39.0054 -23.0862 -59.9674
rradius 23.9184
rwrist 7.1655
rhand -16.6795 -12.3006
rfingers 7.12502
rthumb 9.54462 -42.0644
lclavicle -2.23012e-015 9.74045e-015
lhumerus -37.848 7.12947 59.5206
lradius 37.0128
lwrist -12.5481
lhand -10.84 13.5803
lfingers 7.12502
lthumb 15.1746 43.0039
rfemur -23.3709 -3.2022 23.2467
rtibia 44.2972
rfoot -25.4157 -19.1449
rtoes -4.1681
lfemur -18.7591 -0.853675 -27.3812
ltibia 24.3433
lfoot -22.038 25.0574
ltoes 17.9429
2646
root -1.103 15.7041 -4.6514 -347.847 20.9256 -361.306
lowerback -6.35914 1.14563 1.39095
upperback -6.05636 1.50994 -0.436401
thorax -2.64047 0.718145 -1.16984
lowerneck -13.6452 1.09393 6.7568
upperneck 35.8294 0.332814 -1.1266
head 14.7004 1.029 -1.57424
rclavicle 1.00076e-014 -3.97569e-016
rhumerus -39.271 -23.2973 -60.0014
rradius 23.7181
rwrist 7.55646
rhand -16.6476 -12.1975
rfingers 7.12502
rthumb 9.57538 -41.9599
lclavicle 1.00076e-014 -3.97569e-016
lhumerus -38.1398 7.46494 59.7406
lradius 36.8375
lwrist -12.7983
lhand -10.7511 13.4191
lfingers 7.12502
lthumb 15.2603 42.8362
rfemur -22.9278 -3.42771 23.3413
rtibia 44.0136
rfoot -25.4691 -19.2993
rtoes -4.09491
lfemur -18.9215 -0.513762 -27.4729
ltibia 24.3282
lfoot -22.2635 25.5495
ltoes 18.3769
2647
root -1.11702 15.7069 -4.68145 -347.76 19.8066 -361.284
lowerback -6.44517 1.12284 1.39481
upperback -6.10439 1.47677 -0.437075
thorax -2.64377 0.700391 -1.17286
lowerneck -13.6196 1.26302 6.91646
upperneck 35.853 0.595836 -1.31182
head 14.7212 1.13352 -1.63808
rclavicle 1.13307e-014 1.19271e-015
rhumerus -39.5094 -23.4831 -60.0591
rradius 23.533
rwrist 7.90002
rhand -16.6287 -12.0918
rfingers 7.12502
rthumb 9.59356 -41.8534
lclavicle 1.13307e-014 1.19271e-015
lhumerus -38.4086 7.81032 60.0025
lradius 36.6552
lwrist -13.0687
lhand -10.6599 13.2965
lfingers 7.12502
lthumb 15.3481 42.7069
rfemur -22.5017 -3.62824 23.4171
rtibia 43.6563
rfoot -25.5237 -19.425
rtoes -4.07176
lfemur -19.0959 -0.175066 -27.5678
ltibia 24.3171
lfoot -22.4941 26.0364
ltoes 18.802
2648
root -1.1318 15.7094 -4.71117 -347.661 18.6995 -361.254
lowerback -6.53144 1.1173 1.40814
upperback -6.15356 1.46583 -0.460754
thorax -2.64673 0.69296 -1.20402
lowerneck -13.6174 1.42603 7.07915
upperneck 35.8919 0.836102 -1.4659
head 14.755 1.23363 -1.69329
rclavicle 3.45388e-015 4.77083e-015
rhumerus -39.784 -23.7127 -60.107
rradius 23.3347
rwrist 8.27627
rhand -16.6721 -11.8534
rfingers 7.12502
rthumb 9.55173 -41.6169
lclavicle 3.45388e-015 4.77083e-015
lhumerus -38.6252 8.09144 60.3073
lradius 36.4636
lwrist -13.3472
lhand -10.5624 13.2346
lfingers 7.12502
lthumb 15.442 42.6378
rfemur -22.0937 -3.80087 23.4768
rtibia 43.2256
rfoot -25.5695 -19.5313
rtoes -4.14072
lfemur -19.2874 0.153071 -27.6652
ltibia 24.316
lfoot -22.7444 26.5127
ltoes 19.2685
2649
root -1.14742 15.7116 -4.74059 -347.559 17.6054 -361.221
lowerback -6.61206 1.11173 1.42004
upperback -6.19653 1.45487 -0.483499
thorax -2.64643 0.685586 -1.23348
lowerneck -13.6432 1.59507 7.24063
upperneck 35.9329 1.08325 -1.61943
head 14.7978 1.33655 -1.7469
rclavicle 4.26331e-014 1.98785e-015
rhumerus -40.0474 -23.9393 -60.1596
rradius 23.1421
rwrist 8.66507
rhand -16.7154 -11.5638
rfingers 7.12502
rthumb 9.50997 -41.3292
lclavicle 4.26331e-014 1.98785e-015
lhumerus -38.8145 8.36365 60.6533
lradius 36.2725
lwrist -13.6345
lhand -10.4515 13.2076
lfingers 7.12502
lthumb 15.5488 42.6025
rfemur -21.696 -3.93059 23.5262
rtibia 42.7169
rfoot -25.6023 -19.6112
rtoes -4.25746
lfemur -19.4934 0.472294 -27.7584
ltibia 24.3316
lfoot -23.0025 26.9773
ltoes 19.7258
